<svg width="61" height="31" viewBox="0 0 61 31" fill="none" xmlns="http://www.w3.org/2000/svg">
<path d="M60.0976 15.375L60.1085 13.7547L60.0876 13.7545L60.0907 13.2916C57.1463 13.2769 54.2417 12.6137 51.5861 11.3498C44.8006 8.0771 42.3225 1.04635 42.0622 0.255222L38.5202 1.40491C38.9768 2.79691 41.4092 9.34125 47.7581 13.4421L0.111449 13.1204L0.0864497 16.8241L47.7331 17.1457C41.334 21.1604 38.8089 27.6736 38.3336 29.057L41.8597 30.2545C42.1307 29.467 44.7081 22.4703 51.5325 19.2894C54.1712 18.0763 57.0455 17.4526 59.953 17.462L60.0626 17.4628L60.0657 16.9998L60.0866 16.9999L60.0976 15.375Z" fill="#E8E8E8"/>
</svg>
