<svg width="98" height="33" viewBox="0 0 98 33" fill="none" xmlns="http://www.w3.org/2000/svg">
<path fill-rule="evenodd" clip-rule="evenodd" d="M78.2911 22.2835L78.1532 26.2048H77.9709L77.8569 22.2835L77.2359 3.60889H75.2246L76.281 28.3828H78.9965L80.6568 3.60889H79.3349L78.2911 22.2835Z" fill="#FEFEFE"/>
<path fill-rule="evenodd" clip-rule="evenodd" d="M66.317 25.8379C66.317 27.1317 66.1769 27.3411 65.1513 27.3411H64.7832V4.64961H65.1513C66.1769 4.64961 66.317 4.85898 66.317 6.15281V25.8379ZM65.9786 3.6084H62.8848V28.3823H65.9786C67.893 28.3823 68.2178 27.7348 68.2178 25.9346V6.05495C68.2178 4.25474 67.893 3.6084 65.9786 3.6084Z" fill="#FEFEFE"/>
<path fill-rule="evenodd" clip-rule="evenodd" d="M70.1738 28.3828H73.8465V27.2574H72.086V15.4263H73.5924V14.302H72.086V4.7343H73.8465V3.60889H70.1738V28.3828Z" fill="#FEFEFE"/>
<path fill-rule="evenodd" clip-rule="evenodd" d="M17.7668 16.2984L18.2363 9.04641L18.3765 5.65993H18.5303L18.601 9.04641L18.977 16.2984H17.7668ZM17.5195 3.60938L15.7168 28.3833H16.984L17.6973 17.3658H19.0306L19.6003 28.3833H21.6128L20.2066 3.60938H17.5195Z" fill="#FEFEFE"/>
<path fill-rule="evenodd" clip-rule="evenodd" d="M41.7211 3.60889H39.8203V28.3828H43.746V27.1038H41.7211V3.60889Z" fill="#FEFEFE"/>
<path fill-rule="evenodd" clip-rule="evenodd" d="M44.7324 28.3828H48.4029V27.2574H46.6446V15.4263H48.151V14.302H46.6446V4.7343H48.4029V3.60889H44.7324V28.3828Z" fill="#FEFEFE"/>
<path fill-rule="evenodd" clip-rule="evenodd" d="M29.9297 4.62116H31.5615V28.3823H33.4622V4.62116H35.0929V3.6084H29.9297V4.62116Z" fill="#FEFEFE"/>
<path fill-rule="evenodd" clip-rule="evenodd" d="M36.3458 26.3159C35.6985 26.3159 35.1777 26.8371 35.1777 27.4812C35.1777 28.1298 35.6985 28.6487 36.3458 28.6487C36.993 28.6487 37.5115 28.1298 37.5115 27.4812C37.5115 26.8371 36.993 26.3159 36.3458 26.3159Z" fill="#FEFEFE"/>
<path fill-rule="evenodd" clip-rule="evenodd" d="M53.4979 13.3195C53.4979 14.1058 53.4979 14.33 52.9372 14.3857H51.9379V4.63481H52.9213C53.3737 4.63481 53.4979 4.84533 53.4979 5.40861V13.3195ZM53.4979 26.5286C53.4865 27.2023 53.4158 27.3411 52.8791 27.3411H51.9379V15.4133H52.8951C53.4284 15.4133 53.4979 15.8059 53.4979 16.5091V26.5286ZM54.1474 3.6084H50.0371V28.3823H54.0471C55.2585 28.3823 55.3849 27.8611 55.3986 26.7926V17.1122C55.3986 15.7217 55.1445 15.2301 54.7536 15.0048C55.2869 14.7374 55.3986 14.3436 55.3986 13.4868V5.15598C55.3986 4.25474 55.0625 3.6084 54.1474 3.6084Z" fill="#FEFEFE"/>
<path fill-rule="evenodd" clip-rule="evenodd" d="M26.8623 15.09C26.8623 15.8763 26.8201 16.27 26.1991 16.27H25.3558V4.63465H25.6943C26.7198 4.63465 26.8623 4.84517 26.8623 6.139V15.09ZM26.5375 3.60938H23.4551V28.3833H25.3558V17.2816H26.1854C26.778 17.2816 26.8623 17.6765 26.8623 18.3763V28.3833H28.7608V18.8838C28.7608 17.4921 28.6046 17.0438 28.0713 16.7764C28.6912 16.4384 28.7608 16.1152 28.7608 14.653V6.05593C28.7608 4.25572 28.436 3.60938 26.5375 3.60938Z" fill="#FEFEFE"/>
<path fill-rule="evenodd" clip-rule="evenodd" d="M57.5801 28.3828H61.2528V27.2574H59.4945V15.4263H60.9987V14.302H59.4945V4.7343H61.2528V3.60889H57.5801V28.3828Z" fill="#FEFEFE"/>
</svg>
