<svg width="47" height="50" viewBox="0 0 47 50" fill="none" xmlns="http://www.w3.org/2000/svg">
<path d="M42.5397 26.1126C41.9088 31.9395 40.0615 37.0115 37.6599 40.5011C35.2203 44.0461 32.457 45.6491 29.996 45.4014C27.535 45.1537 25.1747 43.035 23.547 39.0807C21.9447 35.1881 21.2237 29.8576 21.8545 24.0307C22.4854 18.2039 24.3327 13.1318 26.7343 9.64219C29.1739 6.09724 31.9372 4.4942 34.3982 4.7419C36.8592 4.98959 39.2195 7.1083 40.8472 11.0626C42.4495 14.9552 43.1705 20.2858 42.5397 26.1126Z" fill="#FD4C00" stroke="black" stroke-width="3"/>
<circle cx="32.7421" cy="35.0626" r="5.90431" transform="rotate(57.8258 32.7421 35.0626)" fill="black"/>
<path d="M24.86 26.1126C24.2291 31.9395 22.3818 37.0115 19.9802 40.5011C17.5406 44.0461 14.7773 45.6491 12.3163 45.4014C9.85535 45.1537 7.49503 43.035 5.86732 39.0807C4.26502 35.1881 3.54399 29.8576 4.17485 24.0307C4.80572 18.2039 6.65303 13.1318 9.05458 9.64219C11.4942 6.09724 14.2575 4.4942 16.7185 4.7419C19.1795 4.98959 21.5398 7.1083 23.1675 11.0626C24.7698 14.9552 25.4908 20.2858 24.86 26.1126Z" fill="#FD4C00" stroke="black" stroke-width="3"/>
<circle cx="15.0624" cy="35.0626" r="5.90431" transform="rotate(57.8258 15.0624 35.0626)" fill="black"/>
</svg>
