<svg width="25" height="25" viewBox="0 0 25 25" fill="none" xmlns="http://www.w3.org/2000/svg">
<path fill-rule="evenodd" clip-rule="evenodd" d="M6.50977 3.00977C5.4052 3.00977 4.50977 3.9052 4.50977 5.00977V19.0098C4.50977 20.1143 5.4052 21.0098 6.50977 21.0098H8.50977C9.61434 21.0098 10.5098 20.1143 10.5098 19.0098V5.00977C10.5098 3.9052 9.61434 3.00977 8.50977 3.00977H6.50977ZM15.5098 3.00977C14.4052 3.00977 13.5098 3.9052 13.5098 5.00977V19.0098C13.5098 20.1143 14.4052 21.0098 15.5098 21.0098H17.5098C18.6143 21.0098 19.5098 20.1143 19.5098 19.0098V5.00977C19.5098 3.9052 18.6143 3.00977 17.5098 3.00977H15.5098Z" fill="black"/>
</svg>
