<svg width="48" height="48" viewBox="0 0 48 48" fill="none" xmlns="http://www.w3.org/2000/svg">
<circle cx="23.5" cy="23.5" r="16.5" fill="#E3E3E3"/>
<path d="M25.3385 23.5L29.6192 27.7808C30.1269 28.2884 30.1269 29.1116 29.6192 29.6192C29.1116 30.1269 28.2884 30.1269 27.7808 29.6192L23.5 25.3385L19.2192 29.6192C18.7116 30.1269 17.8884 30.1269 17.3808 29.6192C16.8731 29.1116 16.8731 28.2884 17.3808 27.7808L21.6615 23.5L17.3808 19.2192C16.8731 18.7116 16.8731 17.8884 17.3808 17.3808C17.8884 16.8731 18.7116 16.8731 19.2192 17.3808L23.5 21.6615L27.7808 17.3808C28.2884 16.8731 29.1116 16.8731 29.6192 17.3808C30.1269 17.8884 30.1269 18.7116 29.6192 19.2192L25.3385 23.5Z" fill="#FF2E00"/>
</svg>
